<svg width="92" height="104" viewBox="0 0 92 104" fill="none" xmlns="http://www.w3.org/2000/svg">
<path d="M71.4138 65.3011C68.6949 66.1312 61.0297 66.925 52.1168 67.5636C47.0292 67.9284 41.5321 68.2431 36.3218 68.4803C25.3546 68.9821 15.6264 69.1601 13.5177 68.7997C13.2718 67.0663 13.2444 61.8298 13.3127 55.6447C15.8085 56.0049 23.87 56.0779 33.2658 55.9412C33.2749 56.4566 33.2885 56.9857 33.3114 57.5103C33.4935 61.1776 34.2223 64.8633 37.0459 65.7709C39.4508 66.5464 47.6853 66.3912 49.5433 64.2976C50.2903 63.4584 50.7958 60.238 51.1102 57.0495C51.1603 56.5158 51.2103 55.9777 51.2512 55.4577C59.8364 55.1156 67.3513 54.6365 70.5896 54.0754C71.2455 59.4945 71.5779 63.9463 71.4138 65.3011Z" fill="#F9DFBB"/>
<path d="M51.2512 55.4576C59.8364 55.1155 67.3512 54.6364 70.5896 54.0753C69.419 44.4144 67.2238 31.6835 64.983 28.0252C67.0051 23.6097 71.8738 3.91368 68.6584 2.99227C62.7602 1.30446 48.2545 16.982 46.7879 26.4104V26.4879C41.7689 26.3877 36.3444 26.3877 31.3483 26.4743C30.4283 15.9009 21.2008 0.0683223 17.562 0.0456065C14.7107 0.0273609 12.2332 18.9162 13.9776 27.5646C13.9776 27.5646 13.4539 43.4518 13.3126 55.6446C15.8085 56.0048 23.8699 56.0778 33.2657 55.9411C33.2475 54.7642 33.2657 53.6374 33.2657 52.6477V52.6432C37.9432 52.7298 46.592 51.3432 51.5291 50.1754V50.1799C51.5291 50.9554 51.4427 53.0764 51.2512 55.4576ZM19.3064 8.05552C21.6975 7.59468 26.384 21.3018 27.026 26.4105L27.0307 26.5702C23.7105 26.6706 20.7319 26.8165 18.3955 26.9989C17.2842 21.4021 17.5893 8.38381 19.3064 8.05552ZM30.1506 48.091C27.0581 48.091 24.544 43.8078 24.544 38.5211C24.544 33.2343 27.0581 28.9467 30.1506 28.9467C33.2475 28.9467 35.7569 33.2343 35.7569 38.5211C35.7569 43.8077 33.2475 48.091 30.1506 48.091ZM64.0631 9.25043C66.2673 9.71127 63.3479 24.6817 62.1866 27.3729C59.8137 27.0446 56.2567 26.8027 52.1167 26.6477C52.9411 22.5059 61.8585 8.78982 64.0631 9.25043ZM49.4841 47.1696C46.3872 47.1696 43.8775 42.8864 43.8775 37.5997C43.8775 32.3129 46.3872 28.0253 49.4841 28.0253C52.5813 28.0253 55.0907 32.3129 55.0907 37.5997C55.0907 42.8863 52.5813 47.1696 49.4841 47.1696Z" fill="#0E6AB4"/>
<path d="M62.1866 27.3729C59.8137 27.0446 56.2567 26.8027 52.1167 26.6477C52.9411 22.5059 61.8585 8.78985 64.063 9.25046C66.2674 9.71121 63.3479 24.6817 62.1866 27.3729Z" fill="#F9DFBB"/>
<path d="M49.4841 28.0252C46.3872 28.0252 43.8776 32.3129 43.8776 37.5997C43.8776 42.8863 46.3872 47.1695 49.4841 47.1695C52.5813 47.1695 55.0907 42.8863 55.0907 37.5997C55.0907 32.3129 52.5813 28.0252 49.4841 28.0252ZM52.2942 37.5358V37.5997C52.2942 39.8713 51.0373 41.7141 49.4841 41.7141C47.9312 41.7141 46.6741 39.8713 46.6741 37.5997C46.6741 35.3235 47.9313 33.4806 49.4841 33.4806C50.1629 33.4806 50.7867 33.8318 51.265 34.4158C51.3333 34.4067 51.4016 34.402 51.4745 34.402C52.3945 34.402 53.146 35.1501 53.146 36.076C53.1459 36.701 52.7999 37.2485 52.2942 37.5358Z" fill="white"/>
<path d="M53.4784 103.685H35.7616C35.8708 94.535 38.1071 77.4298 40.1704 76.5311C42.2835 75.6097 46.8791 74.9667 48.1634 76.5311C49.352 77.9725 52.7543 98.0336 53.4784 103.685Z" fill="#F9DFBB"/>
<path d="M51.4745 34.402C52.3945 34.402 53.146 35.1502 53.146 36.076C53.146 36.701 52.7999 37.2484 52.2942 37.5358C52.2807 36.2767 51.8844 35.1593 51.265 34.4159C51.3333 34.4067 51.4016 34.402 51.4745 34.402Z" fill="white"/>
<path d="M52.2942 37.5358C52.2942 37.5585 52.2942 37.5768 52.2942 37.5997C52.2942 39.8713 51.0372 41.7141 49.4841 41.7141C47.9312 41.7141 46.6741 39.8713 46.6741 37.5997C46.6741 35.3235 47.9312 33.4807 49.4841 33.4807C50.1628 33.4807 50.7867 33.8319 51.265 34.4159C50.4406 34.5208 49.803 35.2232 49.803 36.076C49.803 37.0021 50.5545 37.75 51.4745 37.75C51.7705 37.7501 52.0529 37.6726 52.2942 37.5358Z" fill="#0E6AB4"/>
<path d="M51.265 34.4159C51.8844 35.1594 52.2807 36.2768 52.2943 37.5358C52.053 37.6725 51.7705 37.75 51.4745 37.75C50.5545 37.75 49.8031 37.0022 49.8031 36.0761C49.8031 35.2233 50.4406 34.5208 51.265 34.4159Z" fill="white"/>
<path d="M51.5292 50.1754V50.1799C51.5292 50.9554 51.4428 53.0764 51.2512 55.4576C51.2103 55.9776 51.1603 56.5157 51.1102 57.0494C47.1342 54.8509 35.2788 56.9583 33.3114 57.5102C33.2885 56.9857 33.2749 56.4565 33.2658 55.9411C33.2476 54.7642 33.2658 53.6375 33.2658 52.6477V52.6432C37.9433 52.7298 46.5921 51.3432 51.5292 50.1754Z" fill="#D35488"/>
<path d="M51.1102 57.0494C50.7958 60.2379 50.2903 63.4583 49.5433 64.2975C47.6853 66.3911 39.4508 66.5464 37.0459 65.7708C34.2223 64.8633 33.4935 61.1776 33.3114 57.5102C35.2788 56.9583 47.1342 54.8509 51.1102 57.0494Z" fill="#FFC0FC"/>
<path d="M30.1506 28.9467C27.0582 28.9467 24.5441 33.2343 24.5441 38.5211C24.5441 43.8077 27.0581 48.091 30.1506 48.091C33.2476 48.091 35.757 43.8078 35.757 38.5211C35.757 33.2343 33.2476 28.9467 30.1506 28.9467ZM30.2416 42.6355C28.6887 42.6355 27.4315 40.7927 27.4315 38.5211C27.4315 36.2449 28.6887 34.402 30.2416 34.402C31.1525 34.402 31.9633 35.0361 32.4732 36.0215C33.1155 36.254 33.5801 36.8699 33.5801 37.5997C33.5801 38.0833 33.375 38.5211 33.0425 38.8267C32.9378 40.9568 31.7218 42.6355 30.2416 42.6355Z" fill="white"/>
<path d="M32.4731 36.0215C33.1154 36.254 33.58 36.8699 33.58 37.5997C33.58 38.0833 33.3749 38.5211 33.0425 38.8267C33.0471 38.7263 33.0516 38.626 33.0516 38.5211C33.0516 37.5814 32.8376 36.7148 32.4731 36.0215Z" fill="white"/>
<path d="M33.0516 38.5211C33.0516 38.6261 33.0472 38.7263 33.0425 38.8267C32.7465 39.1004 32.3502 39.269 31.913 39.269C30.9886 39.269 30.2416 38.5211 30.2416 37.5997C30.2416 36.6736 30.9886 35.9255 31.913 35.9255C32.109 35.9255 32.3002 35.9575 32.4732 36.0214C32.8377 36.7148 33.0516 37.5815 33.0516 38.5211Z" fill="white"/>
<path d="M30.2416 34.402C31.1525 34.402 31.9633 35.0361 32.4732 36.0215C32.3002 35.9576 32.1089 35.9255 31.913 35.9255C30.9885 35.9255 30.2416 36.6736 30.2416 37.5997C30.2416 38.5211 30.9885 39.2691 31.913 39.2691C32.3502 39.2691 32.7465 39.1005 33.0425 38.8267C32.9378 40.9569 31.7218 42.6356 30.2416 42.6356C28.6886 42.6356 27.4315 40.7927 27.4315 38.5212C27.4315 36.2449 28.6886 34.402 30.2416 34.402Z" fill="#0E6AB4"/>
<path d="M27.0307 26.5702C23.7105 26.6706 20.7319 26.8165 18.3955 26.9989C17.2843 21.402 17.5894 8.38375 19.3064 8.05547C21.6975 7.59463 26.384 21.3018 27.0261 26.4104L27.0307 26.5702Z" fill="#F9DFBB"/>
<path d="M53.2189 49.7467C52.7269 49.8835 52.1576 50.0296 51.5292 50.1754" stroke="#0E6AB4" stroke-miterlimit="10" stroke-linecap="round"/>
<path d="M30.2416 52.0502C30.6697 52.4379 31.7629 52.6159 33.2658 52.6433" stroke="#0E6AB4" stroke-miterlimit="10" stroke-linecap="round"/>
<path d="M51.4745 48.4604L54.4122 50.4171" stroke="#0E6AB4" stroke-miterlimit="10" stroke-linecap="round"/>
<path d="M51.2513 55.4576C51.2104 55.9776 51.1603 56.5157 51.1103 57.0494C50.7958 60.2379 50.2903 63.4583 49.5434 64.2975C47.6853 66.3911 39.4508 66.5463 37.046 65.7708C34.2223 64.8632 33.4936 61.1776 33.3115 57.5102C33.2885 56.9857 33.275 56.4564 33.2659 55.9411" stroke="#0E6AB4" stroke-miterlimit="10" stroke-linecap="round"/>
<path d="M9.65758 75.5839C12.342 76.4431 22.3861 84.1458 26.8257 86.4203H26.8304C29.0574 84.6231 35.1332 76.9872 35.9029 73.5845C36.0394 71.2763 36.1806 69.4609 36.3218 68.4803C41.5321 68.2431 47.0293 67.9284 52.1168 67.5635C52.2488 68.5624 52.4081 70.1543 52.5904 72.1249C53.82 74.8754 61.0024 80.8874 64.2726 83.1863L64.8646 83.1589C67.3695 80.3034 78.2504 69.6313 81.7376 68.6039C83.8023 67.9956 85.2598 68.0261 86.3984 68.376C89.8462 69.4355 92.2413 70.9024 91.8771 72.914C91.5811 74.5562 86.4573 74.6473 83.8111 74.921C83.2827 74.9758 82.6316 75.2996 82.3218 75.4364C82.2262 75.4776 82.1442 75.5277 82.0759 75.5825C80.2359 77.0832 67.2283 90.0329 64.8646 90.1881C62.5009 90.3384 55.1499 81.7313 53.2189 78.6706L53.1507 78.675C53.943 88.3589 54.8312 100.702 55.0407 103.685H53.4785C52.7544 98.0336 49.3521 77.9726 48.1635 76.5311C46.8792 74.9666 42.2836 75.6097 40.1705 76.5311C38.1072 77.4298 35.8709 94.535 35.7617 103.685H34.696C34.8326 100.775 35.1377 90.4434 35.5157 81.5899H35.5113C34.4409 84.0757 28.6796 93.5588 27.0261 93.6502C25.5915 93.7277 12.8924 84.6888 9.71811 83.1516C9.70431 83.1425 9.69543 83.138 9.68163 83.1333C8.09226 82.2119 3.44662 81.391 1.32885 80.2415C0.877864 79.9996 0.545389 79.7397 0.376828 79.4615C-0.556744 77.9151 2.46168 75.4473 5.16101 75.3005C7.1642 75.1917 8.64194 75.2587 9.65758 75.5839Z" fill="#0E6AB4"/>
</svg>
