<svg width="60" height="107" viewBox="0 0 60 107" fill="none" xmlns="http://www.w3.org/2000/svg">
<path d="M36.8346 53.1553C36.8434 52.609 36.821 52.045 36.7756 51.4854C48.0494 51.3779 57.8165 51.3018 59.224 51.3018C59.5893 56.4144 59.7787 60.6542 59.6346 62.2435C57.0719 62.5659 54.1396 62.8479 50.9861 63.0897C50.1698 61.6393 48.9878 60.4081 47.3951 59.4589C43.7592 57.3011 38.3545 58.6127 33.0361 64.0119C31.0012 64.0746 28.9712 64.1285 26.9772 64.1731C23.1787 60.1527 18.663 57.3277 11.8195 61.3975C10.4751 62.1988 9.42836 63.1657 8.66157 64.276C4.92172 64.2225 2.07042 64.1059 0.613319 63.9492C0.256928 61.4735 0.184883 56.9697 0.26153 51.8613C3.4104 51.8078 11.6615 51.7225 21.0315 51.6285C21.0222 52.2732 21.0359 52.936 21.0989 53.5896C21.3019 55.7252 22.0104 57.7262 23.9321 58.3307C27.5006 59.4543 32.6978 59.4543 35.0433 57.9636C36.3245 57.1487 36.8073 55.2639 36.8346 53.1553Z" fill="#F9DFBB"/>
<path d="M21.2889 48.4411C21.2074 49.2425 21.0541 50.4199 21.0316 51.6286C11.6617 51.7226 3.41055 51.8078 0.261719 51.8614C0.396967 42.2225 1.03752 30.4346 1.22718 26.0918C1.64217 16.7037 8.32342 0.170103 12.8481 0.0671322C17.3729 -0.0312272 20.0483 20.0704 20.0483 24.8652C25.4975 24.6593 31.7684 24.9682 36.3969 25.0712C38.6573 15.6828 46.8856 0.985049 50.2783 0.886466C53.6706 0.783495 56.1385 20.7599 56.5487 25.6174C57.3474 29.9331 58.57 42.0435 59.2242 51.3017C57.8167 51.3017 48.0496 51.3778 36.7758 51.4854C36.6405 49.9407 36.3247 48.3559 35.955 47.107C31.7504 48.9872 25.0557 48.9738 21.2889 48.4411ZM52.4841 25.9128C53.03 21.185 51.5325 7.55274 49.4254 7.55274C46.7728 7.55274 41.9773 20.3075 41.3006 24.9994C44.1564 25.201 48.7535 25.4696 52.4841 25.9128ZM16.6646 25.1249C16.6151 19.7167 14.0346 6.81409 11.9593 6.81409C10.3174 6.81409 6.23014 19.4928 5.79706 25.9128C9.94288 25.4113 13.218 25.4919 16.6646 25.1249Z" fill="#0E6AB4"/>
<path d="M49.4252 7.55273C51.5324 7.55273 53.0298 21.185 52.484 25.9128C48.7534 25.4697 44.1562 25.201 41.3005 24.9995C41.9772 20.3076 46.7726 7.55273 49.4252 7.55273Z" fill="#F9DFBB"/>
<path d="M17.567 91.0127C17.7969 90.9456 18.0313 90.8738 18.2749 90.7978C19.2538 90.4932 20.323 90.1173 21.4328 89.6875C21.4733 89.6739 21.5187 89.656 21.5593 89.6383C21.5231 89.6158 21.4826 89.5845 21.4465 89.553C20.4764 88.7785 19.5336 87.9548 18.6586 87.0953C15.645 84.154 13.3984 80.8186 13.3442 77.604C13.2946 74.4568 15.275 72.5451 17.5127 74.2688C18.3291 74.8999 19.0512 75.7774 19.7367 76.7893C20.6477 78.1234 21.5007 79.6904 22.4434 81.2215C23.8329 83.4689 25.4256 85.6492 27.69 86.9432H27.6944C29.4403 86.0657 31.0691 85.1478 32.3863 84.257C34.123 83.075 35.6301 81.8213 36.9474 80.626C38.2241 79.4665 39.3246 78.3652 40.2899 77.4339C42.505 75.303 44.021 74.0762 45.3426 75.1731C47.3366 76.8341 45.5999 80.7873 41.4314 84.906C40.4617 85.8685 39.3564 86.8402 38.1338 87.7891C37.5245 88.2683 36.8884 88.7383 36.2253 89.1995C35.887 89.4367 35.472 89.7054 34.9984 89.9963C36.221 90.4082 37.4616 90.8021 38.6436 91.1515C39.8886 91.5141 41.0706 91.8363 42.0993 92.0871C42.2482 92.1273 42.3878 92.1631 42.5275 92.1946C42.5006 92.0199 42.4738 91.8453 42.4509 91.6706C44.4902 89.2441 46.3172 86.6117 47.8331 83.9211C50.2645 88.1025 53.693 95.4939 51.0813 97.4684C49.7998 98.4399 46.845 98.6458 43.421 98.3415C42.1892 98.2296 40.8948 98.0549 39.5952 97.8221C38.7066 97.6653 37.8136 97.4819 36.9382 97.2804C34.6601 96.7476 32.4899 96.0671 30.7532 95.3105C29.8871 94.9299 28.917 94.451 27.8932 93.8778C26.2693 94.6882 24.5459 95.5075 22.818 96.2774C22.1233 96.5865 21.4285 96.8865 20.743 97.1728C19.6328 97.6384 18.5367 98.0772 17.4811 98.4667C13.43 99.9619 9.96523 100.786 8.53083 100.074C6.25714 98.9457 9.35179 87.9278 11.2149 82.5511C12.9112 85.3627 15.0675 88.2235 17.567 91.0127Z" fill="#0E6AB4"/>
<path d="M22.4435 81.2215C21.5007 79.6904 20.6478 78.1234 19.7367 76.7893C19.0512 75.7774 18.3292 74.8999 17.5128 74.2688C15.275 72.5451 13.2947 74.4568 13.3443 77.604C13.3985 80.8186 15.6451 84.154 18.6587 87.0953C19.5337 87.9549 20.4764 88.7786 21.4465 89.553C21.4421 89.5979 21.4373 89.6427 21.4329 89.6875C20.3231 90.1173 19.2539 90.4933 18.275 90.7978C18.0314 90.8739 17.797 90.9456 17.567 91.0127C15.0676 88.2235 12.9113 85.3627 11.2149 82.5512C6.95628 75.5 5.54867 68.753 8.66163 64.276C9.42841 63.1657 10.4752 62.1989 11.8195 61.3975C18.6631 57.3277 23.1788 60.1527 26.9772 64.1731C28.0147 65.27 28.9985 66.461 29.9594 67.6204C30.9744 66.2594 32.0031 65.0595 33.0362 64.0119C38.3545 58.6127 43.7593 57.3011 47.3952 59.4589C48.9878 60.4081 50.1698 61.6393 50.9862 63.0897C53.9233 68.31 52.1096 76.3416 47.8331 83.9213C46.3171 86.6119 44.4902 89.2442 42.4508 91.6708L42.0993 92.0872C41.0706 91.8364 39.8886 91.5142 38.6435 91.1516C37.4615 90.8023 36.2209 90.4083 34.9984 89.9965C35.472 89.7055 35.887 89.4369 36.2253 89.1997C36.8883 88.7384 37.5245 88.2684 38.1338 87.7893C39.3564 86.8403 40.4617 85.8686 41.4314 84.9061C45.5999 80.7874 47.3365 76.8342 45.3426 75.1733C44.0209 74.0763 42.505 75.3031 40.2899 77.4341C39.3247 78.3653 38.2241 79.4666 36.9474 80.6261C35.6301 81.8214 34.123 83.0751 32.3863 84.2571C31.0691 85.1479 29.4403 86.0658 27.6944 86.9433H27.69C25.4256 85.6493 23.833 83.4689 22.4435 81.2215Z" fill="#EA5994"/>
<path d="M44.4902 106.66H40.6375C40.4481 104.457 40.06 101.274 39.5952 97.8221C40.8949 98.0549 42.1892 98.2296 43.421 98.3416C44.0435 102.693 44.4765 105.943 44.4902 106.66Z" fill="#0E6AB4"/>
<path d="M40.6376 106.66H20.0615C20.1294 105.021 20.3911 101.35 20.743 97.173C21.4285 96.8866 22.1233 96.5867 22.8181 96.2776C25.0512 98.3012 27.4465 100.231 29.9595 102.013C32.3415 100.826 34.6963 99.2056 36.9383 97.2806C37.8136 97.4821 38.7066 97.6655 39.5952 97.8223C40.0601 101.274 40.4482 104.457 40.6376 106.66Z" fill="#F9DFBB"/>
<path d="M36.7758 51.4853C36.8211 52.045 36.8436 52.609 36.8348 53.1553C35.8964 52.4927 34.5069 51.8703 32.9099 51.5166C31.5341 51.2123 29.9459 51.0466 28.1911 51.0689C26.8104 51.0868 25.6557 51.2927 24.6904 51.5929C22.9533 52.1389 21.8255 52.9895 21.0991 53.5896C21.0361 52.936 21.0224 52.2732 21.0317 51.6285C21.0541 50.4199 21.2074 49.2425 21.2889 48.4411C25.0557 48.9738 31.7504 48.9871 35.955 47.1069C36.3246 48.3558 36.6405 49.9407 36.7758 51.4853Z" fill="#D35488"/>
<path d="M36.8346 53.1553C36.8073 55.2639 36.3244 57.1487 35.0433 57.9636C32.6978 59.4543 27.5006 59.4543 23.9321 58.3306C22.0104 57.7262 21.302 55.7251 21.0989 53.5896C21.8254 52.9896 22.9532 52.139 24.6903 51.5929C25.6555 51.2927 26.8102 51.0868 28.1909 51.0689C29.9456 51.0466 31.5339 51.2123 32.9097 51.5166C34.5067 51.8703 35.8962 52.4927 36.8346 53.1553Z" fill="#FFC0FC"/>
<path d="M30.7534 95.3107C32.49 96.0673 34.6602 96.7478 36.9383 97.2805C34.6964 99.2055 32.3416 100.826 29.9595 102.013C27.4466 100.231 25.0513 98.3012 22.8181 96.2776C24.546 95.5076 26.2694 94.6883 27.8933 93.8779C28.9171 94.4512 29.8872 94.9301 30.7534 95.3107Z" fill="#EA5994"/>
<path d="M33.0363 64.012C32.0032 65.0595 30.9745 66.2594 29.9594 67.6205C28.9986 66.461 28.0148 65.27 26.9773 64.1731C28.9712 64.1285 31.0013 64.0747 33.0363 64.012Z" fill="#0E6AB4"/>
<path d="M20.743 97.173C20.391 101.35 20.1293 105.021 20.0615 106.66H16.6646C16.7278 105.854 17.0434 102.702 17.4811 98.4669C18.5366 98.0773 19.6327 97.6386 20.743 97.173Z" fill="#0E6AB4"/>
<path d="M11.9591 6.81409C14.0343 6.81409 16.6149 19.7167 16.6645 25.1249C13.2178 25.4919 9.94269 25.4113 5.79688 25.9128C6.22991 19.4928 10.3171 6.81409 11.9591 6.81409Z" fill="#F9DFBB"/>
<path d="M10.3044 37.9301C11.2168 40.6925 17.4873 42.1696 20.1632 36.486" stroke="white" stroke-miterlimit="10" stroke-linecap="round"/>
<path d="M34.1526 36.9052C35.5611 40.8651 43.4478 44.3125 47.0155 36.9052" stroke="white" stroke-miterlimit="10" stroke-linecap="round"/>
<path d="M18.7366 47.8067C20.4917 48.7851 30.7721 49.6237 36.2649 46.9681" stroke="#0E6AB4" stroke-miterlimit="10" stroke-linecap="round"/>
<path d="M35.467 45.9899C35.467 45.9899 36.5292 47.0442 37.2773 47.7866" stroke="#0E6AB4" stroke-miterlimit="10" stroke-linecap="round"/>
<path d="M21.2528 48.4348C21.0083 51.0213 20.2858 57.1848 23.9323 58.3316C27.5012 59.4539 32.6976 59.4539 35.0448 57.9631C37.5802 56.3528 36.985 50.5697 35.9444 47.1151" stroke="#0E6AB4" stroke-miterlimit="10" stroke-linecap="round"/>
</svg>
